<?xml version="1.0" encoding="UTF-8" standalone="no"?>
<!-- Generator: Adobe Illustrator 19.0.0, SVG Export Plug-In . SVG Version: 6.00 Build 0)  -->

<svg
   xmlns:dc="http://purl.org/dc/elements/1.1/"
   xmlns:cc="http://creativecommons.org/ns#"
   xmlns:rdf="http://www.w3.org/1999/02/22-rdf-syntax-ns#"
   xmlns:svg="http://www.w3.org/2000/svg"
   xmlns="http://www.w3.org/2000/svg"
   xmlns:xlink="http://www.w3.org/1999/xlink"
   xmlns:sodipodi="http://sodipodi.sourceforge.net/DTD/sodipodi-0.dtd"
   xmlns:inkscape="http://www.inkscape.org/namespaces/inkscape"
   version="1.0"
   id="Layer_1"
   x="0px"
   y="0px"
   height="28"
   viewBox="0 0 24 23.9"
   style="enable-background:new 0 0 24 23.9;"
   xml:space="preserve"
   inkscape:version="0.91 r13725"
   sodipodi:docname="httplug_old.svg"><metadata
     id="metadata96"><rdf:RDF><cc:Work
         rdf:about=""><dc:format>image/svg+xml</dc:format><dc:type
           rdf:resource="http://purl.org/dc/dcmitype/StillImage" /><dc:title></dc:title></cc:Work></rdf:RDF></metadata><defs
     id="defs94" /><sodipodi:namedview
     pagecolor="#ffffff"
     bordercolor="#666666"
     borderopacity="1"
     objecttolerance="10"
     gridtolerance="10"
     guidetolerance="10"
     inkscape:pageopacity="0"
     inkscape:pageshadow="2"
     inkscape:window-width="1680"
     inkscape:window-height="975"
     id="namedview92"
     showgrid="false"
     inkscape:zoom="22.627417"
     inkscape:cx="7.8997607"
     inkscape:cy="16.277183"
     inkscape:window-x="0"
     inkscape:window-y="29"
     inkscape:window-maximized="1"
     inkscape:current-layer="g15" /><style
     type="text/css"
     id="style3">
	.st0{fill:none;}
	.st1{clip-path:url(#SVGID_4_);fill:url(#SVGID_5_);}
	.st2{clip-path:url(#SVGID_4_);fill:none;}
	.st3{clip-path:url(#SVGID_4_);}
	.st4{opacity:0.2;clip-path:url(#SVGID_7_);}
</style><g
     id="g5"><defs
       id="defs7"><rect
         id="SVGID_1_"
         x="-56"
         y="-488"
         width="1000"
         height="1000" /></defs><clipPath
       id="SVGID_2_"><use
         xlink:href="#SVGID_1_"
         style="overflow:visible;"
         id="use11" /></clipPath></g><rect
     x="-56"
     y="-488"
     class="st0"
     width="1000"
     height="1000"
     id="rect13" /><g
     id="g15"><defs
       id="defs17"><path
         id="SVGID_3_"
         d="M14.9,0.3C15,0.5,15,0.6,15.1,0.7c0.1,0.1,0.1,0.2,0.2,0.4c0,0.1,0.1,0.1,0.1,0.2c0,0.1,0.1,0.1,0.1,0.2    c0.1,0.1,0.1,0.3,0.1,0.4c0,0,0,0,0,0.1c0,0,0,0.1,0,0.1l0,0.2l0,0.2c0,0.1,0,0.1,0,0.2c0,0.1,0,0.3,0,0.4c0,0.1,0,0.3,0,0.4    l0,0.2c0,0.1,0,0.1,0,0.2l-0.1,0.4c0,0.1-0.1,0.3-0.1,0.4c-0.1,0.3-0.2,0.5-0.2,0.8c0,0.1-0.1,0.2-0.1,0.4    c-0.1,0.1-0.1,0.2-0.2,0.3c0,0.1-0.1,0.2-0.2,0.3c-0.1,0.1-0.1,0.2-0.2,0.3c-0.1,0.1-0.1,0.2-0.2,0.3c-0.1,0.1-0.1,0.2-0.2,0.3    c-0.1,0.1-0.1,0.2-0.2,0.3C14.1,7.8,14,7.9,13.9,8c-0.1,0.1-0.1,0.2-0.2,0.3c-0.1,0.1-0.1,0.2-0.2,0.2c-0.1,0.2-0.3,0.3-0.4,0.4    C13.1,9,13,9,12.9,9.1c-0.1,0.1-0.1,0.1-0.2,0.2c-0.1,0.1-0.2,0.2-0.3,0.3c-0.2,0.2-0.4,0.4-0.6,0.5c-0.3,0.3-0.5,0.5-0.5,0.5    s0.2-0.2,0.4-0.5c0.1-0.2,0.3-0.4,0.5-0.6c0.1-0.1,0.2-0.2,0.3-0.4C12.6,9,12.7,9,12.7,8.9c0.1-0.1,0.1-0.1,0.2-0.2    c0.1-0.2,0.2-0.3,0.3-0.5c0.1-0.1,0.1-0.2,0.2-0.3c0.1-0.1,0.1-0.2,0.2-0.3c0.1-0.1,0.1-0.2,0.2-0.3c0.1-0.1,0.1-0.2,0.2-0.3    c0-0.1,0.1-0.2,0.1-0.3c0.1-0.1,0.1-0.2,0.1-0.3c0-0.1,0.1-0.2,0.1-0.3c0-0.1,0.1-0.2,0.1-0.3c0-0.1,0.1-0.2,0.1-0.3    c0-0.1,0.1-0.2,0.1-0.3c0-0.2,0.1-0.5,0.1-0.7c0-0.1,0-0.2,0-0.3l0-0.3c0-0.1,0-0.1,0-0.2l0-0.2c0-0.1,0-0.2,0-0.3    c0-0.1,0-0.2-0.1-0.3c0-0.1,0-0.1,0-0.2l-0.1-0.2c-0.1-0.4-0.3-0.8-0.6-1.1c0,0,0,0,0,0c-0.2-0.2-0.4-0.5-0.6-0.7    c-0.1-0.1-0.2-0.1-0.2-0.2c-0.3-0.2-0.5-0.4-0.8-0.6c-0.1,0-0.2,0-0.2,0C5.5,0,0.2,5.2,0.1,11.7l0,0l0,5.5l1.1,0.1L0,17.4l0,0.3    l1.1,0.1L0,17.9l0,0.3l1.1,0.1L0,18.4l0,0.4h0.6v2.5c0,0.2,0.1,0.3,0.3,0.3c0.2,0,0.3-0.1,0.3-0.3v-2.4l1.2,0v2.4    c0,0.2,0.1,0.3,0.3,0.3c0.2,0,0.3-0.1,0.3-0.3v-2.5h0.6v-0.4l-1.3-0.1l1.3-0.1v-0.4l-1.3-0.1l1.3-0.1v-0.4l-1.3-0.1l1.3-0.1v-3    c0-0.9,0.7-1.6,1.6-1.6c0.9,0,1.6,0.7,1.6,1.6v8.5c1.4,0.8,3.3,1.2,5,1.2v-5.3c0-1.6,1.2-2.9,2.8-2.9c1.6-0.1,3,1.2,3,2.9v4.1    c2.2-1.2,4.2-3.1,5.3-5.4c0-0.1,0-0.1-0.1-0.2c0-0.1-0.1-0.2-0.1-0.4c0-0.1-0.1-0.2-0.1-0.4c0-0.1-0.1-0.2-0.1-0.4l-0.1-0.2l0-0.2    c0-0.1-0.1-0.2-0.1-0.4c0-0.2-0.1-0.5-0.1-0.7c0-0.2-0.1-0.5-0.1-0.7c0-0.1,0-0.2,0-0.3c0-0.1,0-0.2,0-0.3c0-0.2,0-0.4,0-0.5    c0-0.2,0-0.3,0-0.4c0-0.2,0-0.3,0-0.3s0,0.1,0.1,0.3c0,0.1,0.1,0.2,0.1,0.4c0,0.1,0.1,0.3,0.1,0.5c0,0.1,0.1,0.2,0.1,0.3    c0,0.1,0.1,0.2,0.1,0.3c0.1,0.2,0.2,0.4,0.2,0.6c0.1,0.2,0.2,0.4,0.3,0.6c0.1,0.1,0.1,0.2,0.2,0.3l0.1,0.2l0.1,0.1    c0,0,0.1,0.1,0.1,0.1c0.4-1.2,0.6-2.4,0.6-3.7C24,6.4,20.1,1.6,14.9,0.3z M5.9,8.5c-0.4,0-0.7-0.3-0.7-0.7C5.2,7.3,5.5,7,5.9,7    c0.4,0,0.7,0.3,0.7,0.7C6.7,8.2,6.3,8.5,5.9,8.5z" /></defs><clipPath
       id="SVGID_4_"><use
         xlink:href="#SVGID_3_"
         style="overflow:visible;"
         id="use21" /></clipPath><linearGradient
       id="SVGID_5_"
       gradientUnits="userSpaceOnUse"
       x1="-55.5711"
       y1="512.8001"
       x2="-55.4749"
       y2="512.8001"
       gradientTransform="matrix(0 -249.3837 -249.3837 0 127895.9922 -13834.3584)"><stop
         offset="0"
         style="stop-color:#FFFFFF"
         id="stop24" /><stop
         offset="0.5082"
         style="stop-color:#FFFFFF"
         id="stop26" /><stop
         offset="1"
         style="stop-color:#FFFFFF"
         id="stop28" /></linearGradient><rect
       class="st1"
       width="24"
       height="23.9"
       id="rect30"
       clip-path="url(#SVGID_4_)"
       style="fill:#aaaaaa;fill-opacity:1" /><path
       class="st2"
       d="M5.2,7.8C5.2,7.3,5.5,7,5.9,7c0.4,0,0.7,0.3,0.7,0.7c0,0.4-0.3,0.7-0.7,0.7C5.5,8.5,5.2,8.2,5.2,7.8 M0.1,11.7   L0.1,11.7L0,17.2l1.2,0.1L0,17.4l0,0.3l1.2,0.1L0,17.9l0,0.3l1.2,0.1L0,18.4l0,0.4h0.5v2.4c0,0.2,0.1,0.3,0.3,0.3   c0.3,0,0.3-0.3,0.3-0.3v-2.4l1.1,0l0,2.4c0,0.2,0.1,0.3,0.3,0.3c0.2,0,0.3-0.2,0.3-0.3c0-0.1,0-2.4,0-2.4h0.6v-0.4l-1.3-0.1   l1.3-0.1v-0.4l-1.3-0.1l1.3-0.1v-0.4l-1.3-0.1l1.3-0.1v-3c0-0.9,0.7-1.6,1.6-1.6c0.9,0,1.6,0.7,1.6,1.6v8.5c1.4,0.8,3.3,1.2,5,1.2   v-5.3c0-1.6,1.2-2.9,2.8-2.9c1.6-0.1,3,1.2,3,2.9v4.1c2.2-1.2,4.2-3.1,5.3-5.4c0-0.1,0-0.1-0.1-0.2c0-0.1-0.1-0.2-0.1-0.4   c0-0.1-0.1-0.2-0.1-0.4c0-0.1-0.1-0.2-0.1-0.4l-0.1-0.2l0-0.2c0-0.1-0.1-0.2-0.1-0.4c0-0.2-0.1-0.5-0.1-0.7c0-0.2-0.1-0.5-0.1-0.7   c0-0.1,0-0.2,0-0.3c0-0.1,0-0.2,0-0.3c0-0.2,0-0.4,0-0.5c0-0.2,0-0.3,0-0.4c0-0.2,0-0.3,0-0.3s0,0.1,0.1,0.3c0,0.1,0.1,0.2,0.1,0.4   c0,0.1,0.1,0.3,0.1,0.5c0,0.1,0.1,0.2,0.1,0.3c0,0.1,0.1,0.2,0.1,0.3c0.1,0.2,0.2,0.4,0.2,0.6c0.1,0.2,0.2,0.4,0.3,0.6   c0.1,0.1,0.1,0.2,0.2,0.3l0.1,0.2l0.1,0.1c0,0,0.1,0.1,0.1,0.1c0.4-1.2,0.6-2.4,0.6-3.7c0-5.6-3.9-10.3-9.1-11.6   C15,0.5,15,0.6,15.1,0.7c0.1,0.1,0.1,0.2,0.2,0.4c0,0.1,0.1,0.1,0.1,0.2c0,0.1,0.1,0.1,0.1,0.2c0.1,0.1,0.1,0.3,0.1,0.4   c0,0,0,0,0,0.1c0,0,0,0.1,0,0.1l0,0.2l0,0.2c0,0.1,0,0.1,0,0.2c0,0.1,0,0.3,0,0.4c0,0.1,0,0.3,0,0.4l0,0.2c0,0.1,0,0.1,0,0.2   l-0.1,0.4c0,0.1-0.1,0.3-0.1,0.4c-0.1,0.3-0.2,0.5-0.2,0.8c0,0.1-0.1,0.2-0.1,0.4c-0.1,0.1-0.1,0.2-0.2,0.3c0,0.1-0.1,0.2-0.2,0.3   c-0.1,0.1-0.1,0.2-0.2,0.3c-0.1,0.1-0.1,0.2-0.2,0.3c-0.1,0.1-0.1,0.2-0.2,0.3c-0.1,0.1-0.1,0.2-0.2,0.3C14.1,7.8,14,7.9,13.9,8   c-0.1,0.1-0.1,0.2-0.2,0.3c-0.1,0.1-0.1,0.2-0.2,0.2c-0.1,0.2-0.3,0.3-0.4,0.4C13.1,9,13,9,12.9,9.1c-0.1,0.1-0.1,0.1-0.2,0.2   c-0.1,0.1-0.2,0.2-0.3,0.3c-0.2,0.2-0.4,0.4-0.6,0.5c-0.3,0.3-0.5,0.5-0.5,0.5s0.2-0.2,0.4-0.5c0.1-0.2,0.3-0.4,0.5-0.6   c0.1-0.1,0.2-0.2,0.3-0.4C12.6,9,12.7,9,12.7,8.9c0.1-0.1,0.1-0.1,0.2-0.2c0.1-0.2,0.2-0.3,0.3-0.5c0.1-0.1,0.1-0.2,0.2-0.3   c0.1-0.1,0.1-0.2,0.2-0.3c0.1-0.1,0.1-0.2,0.2-0.3c0.1-0.1,0.1-0.2,0.2-0.3c0-0.1,0.1-0.2,0.1-0.3c0.1-0.1,0.1-0.2,0.1-0.3   c0-0.1,0.1-0.2,0.1-0.3c0-0.1,0.1-0.2,0.1-0.3c0-0.1,0.1-0.2,0.1-0.3c0-0.1,0.1-0.2,0.1-0.3c0-0.2,0.1-0.5,0.1-0.7   c0-0.1,0-0.2,0-0.3l0-0.3c0-0.1,0-0.1,0-0.2l0-0.2c0-0.1,0-0.2,0-0.3c0-0.1,0-0.2-0.1-0.3c0-0.1,0-0.1,0-0.2l-0.1-0.2   c-0.1-0.4-0.3-0.8-0.6-1.1c0,0,0,0,0,0c-0.2-0.2-0.4-0.5-0.6-0.7c-0.1-0.1-0.2-0.1-0.2-0.2c-0.3-0.2-0.5-0.4-0.8-0.6   c-0.1,0-0.2,0-0.2,0C5.5,0,0.2,5.2,0.1,11.7"
       id="path32"
       clip-path="url(#SVGID_4_)" /><g
       class="st3"
       id="g34"
       clip-path="url(#SVGID_4_)"><defs
         id="defs36"><rect
           id="SVGID_6_"
           x="-14.4"
           y="-36.2"
           width="96.3"
           height="96.3" /></defs><clipPath
         id="SVGID_7_"><use
           xlink:href="#SVGID_6_"
           style="overflow:visible;"
           id="use40" /></clipPath><g
         class="st4"
         id="g42"
         clip-path="url(#SVGID_7_)"><g
           id="g44"><defs
             id="defs46"><rect
               id="SVGID_8_"
               x="1.1"
               y="0.7"
               width="12.8"
               height="14.3" /></defs><clipPath
             id="SVGID_9_"><use
               xlink:href="#SVGID_8_"
               style="overflow:visible;"
               id="use50" /></clipPath></g></g><g
         class="st4"
         id="g52"
         clip-path="url(#SVGID_7_)"><g
           id="g54"><defs
             id="defs56"><rect
               id="SVGID_10_"
               x="15.4"
               y="1.2"
               width="7.3"
               height="9.6" /></defs><clipPath
             id="SVGID_11_"><use
               xlink:href="#SVGID_10_"
               style="overflow:visible;"
               id="use60" /></clipPath></g></g><g
         class="st4"
         id="g62"
         clip-path="url(#SVGID_7_)"><g
           id="g64"><defs
             id="defs66"><rect
               id="SVGID_12_"
               x="0.1"
               y="15.4"
               width="3.3"
               height="1.6" /></defs><clipPath
             id="SVGID_13_"><use
               xlink:href="#SVGID_12_"
               style="overflow:visible;"
               id="use70" /></clipPath></g></g><g
         class="st4"
         id="g72"
         clip-path="url(#SVGID_7_)"><g
           id="g74"><defs
             id="defs76"><rect
               id="SVGID_14_"
               x="0.7"
               y="18.8"
               width="0.1"
               height="1.8" /></defs><clipPath
             id="SVGID_15_"><use
               xlink:href="#SVGID_14_"
               style="overflow:visible;"
               id="use80" /></clipPath></g></g><g
         class="st4"
         id="g82"
         clip-path="url(#SVGID_7_)"><g
           id="g84"><defs
             id="defs86"><rect
               id="SVGID_16_"
               x="2.4"
               y="18.8"
               width="0.1"
               height="1.8" /></defs><clipPath
             id="SVGID_17_"><use
               xlink:href="#SVGID_16_"
               style="overflow:visible;"
               id="use90" /></clipPath></g></g></g></g></svg>